<mxfile host="app.diagrams.net" modified="2024-03-25T03:00:24.072Z" agent="Mozilla/5.0 (Windows NT 10.0; Win64; x64) AppleWebKit/537.36 (KHTML, like Gecko) Chrome/122.0.0.0 Safari/537.36 Edg/122.0.0.0" etag="jaulx9eDSq9sTxRnPEdM" version="24.1.0" type="github">
  <diagram name="Page-1" id="c4acf3e9-155e-7222-9cf6-157b1a14988f">
    <mxGraphModel dx="946" dy="673" grid="1" gridSize="10" guides="1" tooltips="1" connect="1" arrows="1" fold="1" page="1" pageScale="1" pageWidth="850" pageHeight="1100" background="none" math="0" shadow="0">
      <root>
        <mxCell id="0" />
        <mxCell id="1" parent="0" />
        <mxCell id="RcQhmBkYDq5EsUDb4H7h-1" value="用户" style="shape=umlActor;verticalLabelPosition=bottom;verticalAlign=top;html=1;outlineConnect=0;strokeWidth=2;fontSize=20;" vertex="1" parent="1">
          <mxGeometry x="410" y="740" width="30" height="60" as="geometry" />
        </mxCell>
        <mxCell id="RcQhmBkYDq5EsUDb4H7h-4" value="成果展示" style="ellipse;whiteSpace=wrap;html=1;strokeWidth=2;fontSize=20;" vertex="1" parent="1">
          <mxGeometry x="200" y="660" width="150" height="60" as="geometry" />
        </mxCell>
        <mxCell id="RcQhmBkYDq5EsUDb4H7h-5" value="成果导出" style="ellipse;whiteSpace=wrap;html=1;strokeWidth=2;fontSize=20;" vertex="1" parent="1">
          <mxGeometry x="200" y="840" width="140" height="60" as="geometry" />
        </mxCell>
        <mxCell id="RcQhmBkYDq5EsUDb4H7h-6" value="针对专家的成果发布" style="ellipse;whiteSpace=wrap;html=1;strokeWidth=2;fontSize=20;" vertex="1" parent="1">
          <mxGeometry x="540" y="750" width="150" height="60" as="geometry" />
        </mxCell>
        <mxCell id="RcQhmBkYDq5EsUDb4H7h-7" value="" style="endArrow=none;dashed=1;html=1;rounded=0;entryX=0;entryY=0.5;entryDx=0;entryDy=0;strokeWidth=2;" edge="1" parent="1" source="RcQhmBkYDq5EsUDb4H7h-1" target="RcQhmBkYDq5EsUDb4H7h-6">
          <mxGeometry width="50" height="50" relative="1" as="geometry">
            <mxPoint x="400" y="790" as="sourcePoint" />
            <mxPoint x="450" y="740" as="targetPoint" />
          </mxGeometry>
        </mxCell>
        <mxCell id="RcQhmBkYDq5EsUDb4H7h-8" value="" style="endArrow=none;dashed=1;html=1;rounded=0;entryX=0.933;entryY=0.756;entryDx=0;entryDy=0;entryPerimeter=0;strokeWidth=2;" edge="1" parent="1" source="RcQhmBkYDq5EsUDb4H7h-1" target="RcQhmBkYDq5EsUDb4H7h-4">
          <mxGeometry width="50" height="50" relative="1" as="geometry">
            <mxPoint x="400" y="790" as="sourcePoint" />
            <mxPoint x="450" y="740" as="targetPoint" />
          </mxGeometry>
        </mxCell>
        <mxCell id="RcQhmBkYDq5EsUDb4H7h-9" value="" style="endArrow=none;dashed=1;html=1;rounded=0;strokeWidth=2;" edge="1" parent="1" source="RcQhmBkYDq5EsUDb4H7h-1" target="RcQhmBkYDq5EsUDb4H7h-5">
          <mxGeometry width="50" height="50" relative="1" as="geometry">
            <mxPoint x="400" y="790" as="sourcePoint" />
            <mxPoint x="450" y="740" as="targetPoint" />
          </mxGeometry>
        </mxCell>
      </root>
    </mxGraphModel>
  </diagram>
</mxfile>
